<svg width="164" height="44" viewBox="0 0 164 44" fill="none" xmlns="http://www.w3.org/2000/svg">
<rect x="-0.757812" y="26.2422" width="28" height="4" rx="2" transform="rotate(-45 -0.757812 26.2422)" fill="#3A57E8"/>
<rect x="7.72656" y="34.7266" width="28" height="4" rx="2" transform="rotate(-45 7.72656 34.7266)" fill="#3A57E8"/>
<rect x="10.5352" y="23.3945" width="16" height="4" rx="2" transform="rotate(45 10.5352 23.3945)" fill="#3A57E8"/>
<rect x="10.5566" y="6.44531" width="28" height="4" rx="2" transform="rotate(45 10.5566 6.44531)" fill="#3A57E8"/>
<path d="M39.6367 34.5H43.2578V24.0352H55.2227V34.5H58.8555V10.5H55.2227V20.9297H43.2578V10.5H39.6367V34.5ZM71.4297 34.8633C76.5039 34.8633 79.8203 31.1484 79.8203 25.582C79.8203 19.9805 76.5039 16.2656 71.4297 16.2656C66.3555 16.2656 63.0391 19.9805 63.0391 25.582C63.0391 31.1484 66.3555 34.8633 71.4297 34.8633ZM71.4414 31.9219C68.125 31.9219 66.5781 29.0273 66.5781 25.5703C66.5781 22.125 68.125 19.1953 71.4414 19.1953C74.7344 19.1953 76.2813 22.125 76.2813 25.5703C76.2813 29.0273 74.7344 31.9219 71.4414 31.9219ZM83.7314 41.25H87.2354V31.6992H87.4463C88.0791 32.8477 89.3682 34.8516 92.6494 34.8516C97.0088 34.8516 100.173 31.3594 100.173 25.5352C100.173 19.6992 96.9619 16.2656 92.6143 16.2656C89.2744 16.2656 88.0674 18.3047 87.4463 19.418H87.1533V16.5H83.7314V41.25ZM87.165 25.5C87.165 21.7383 88.8057 19.2422 91.8643 19.2422C95.04 19.2422 96.6338 21.9258 96.6338 25.5C96.6338 29.1094 94.9932 31.8633 91.8643 31.8633C88.8525 31.8633 87.165 29.2852 87.165 25.5ZM111.856 34.8633C115.782 34.8633 118.56 32.9297 119.356 30L116.04 29.4023C115.407 31.1016 113.884 31.9687 111.892 31.9687C108.892 31.9687 106.876 30.0234 106.782 26.5547H119.579V25.3125C119.579 18.8086 115.688 16.2656 111.61 16.2656C106.595 16.2656 103.29 20.0859 103.29 25.6172C103.29 31.207 106.548 34.8633 111.856 34.8633ZM106.794 23.9297C106.935 21.375 108.786 19.1602 111.634 19.1602C114.353 19.1602 116.134 21.1758 116.146 23.9297H106.794ZM147.915 10.5V25.9922C147.915 29.25 145.665 31.5937 142.009 31.5937C138.364 31.5937 136.103 29.25 136.103 25.9922V10.5H132.481V26.2852C132.481 31.3242 136.255 34.8984 142.009 34.8984C147.763 34.8984 151.548 31.3242 151.548 26.2852V10.5H147.915ZM160.434 10.5H156.813V34.5H160.434V10.5Z" fill="white"/>
</svg>
