<svg width="18" height="20" viewBox="0 0 18 20" fill="none" xmlns="http://www.w3.org/2000/svg">
<path fill-rule="evenodd" clip-rule="evenodd" d="M17.9133 14.3147L17.1444 8.12007C16.676 5.90964 15.3503 5 14.0865 5H3.93171C2.65022 5 1.28034 5.84597 0.882639 8.12007L0.104905 14.3147C-0.531424 18.8629 1.81062 20 4.86853 20H13.1585C16.2075 20 18.4789 18.3535 17.9133 14.3147ZM6.09717 10.1484C5.60907 10.1484 5.21338 9.74113 5.21338 9.23874C5.21338 8.73636 5.60907 8.3291 6.09717 8.3291C6.58527 8.3291 6.98096 8.73636 6.98096 9.23874C6.98096 9.74113 6.58527 10.1484 6.09717 10.1484ZM11.0024 9.23874C11.0024 9.74113 11.3981 10.1484 11.8862 10.1484C12.3743 10.1484 12.77 9.74113 12.77 9.23874C12.77 8.73636 12.3743 8.3291 11.8862 8.3291C11.3981 8.3291 11.0024 8.73636 11.0024 9.23874Z" fill="#0048B3"/>
<path opacity="0.4" d="M13.9739 4.77432C13.977 4.85189 13.9621 4.92913 13.9303 5H12.4932C12.4654 4.92794 12.4506 4.85153 12.4497 4.77432C12.4497 2.85682 10.8899 1.30238 8.96575 1.30238C7.04164 1.30238 5.48184 2.85682 5.48184 4.77432C5.49502 4.84898 5.49502 4.92535 5.48184 5H4.00989C3.9967 4.92535 3.9967 4.84898 4.00989 4.77432C4.12172 2.10591 6.32499 0 9.00494 0C11.6849 0 13.8882 2.10591 14 4.77432H13.9739Z" fill="#0048B3"/>
</svg>
