<svg width="20" height="20" viewBox="0 0 20 20" fill="none" xmlns="http://www.w3.org/2000/svg">
<path opacity="0.4" fill-rule="evenodd" clip-rule="evenodd" d="M3.9082 18.4573C3.9082 17.6002 4.58767 16.9062 5.42702 16.9062C6.25637 16.9062 6.93584 17.6002 6.93584 18.4573C6.93584 19.3043 6.25637 19.9982 5.42702 19.9982C4.58767 19.9982 3.9082 19.3043 3.9082 18.4573ZM15.1494 18.4573C15.1494 17.6002 15.8289 16.9062 16.6683 16.9062C17.4976 16.9062 18.1771 17.6002 18.1771 18.4573C18.1771 19.3043 17.4976 19.9982 16.6683 19.9982C15.8289 19.9982 15.1494 19.3043 15.1494 18.4573Z" fill="#409900"/>
<path fill-rule="evenodd" clip-rule="evenodd" d="M18.1766 3.92805C18.7861 3.92805 19.1858 4.14234 19.5855 4.61175C19.9852 5.08116 20.0551 5.75465 19.9652 6.3659L19.0159 13.0601C18.8361 14.3468 17.7569 15.2948 16.4879 15.2948H5.58639C4.25742 15.2948 3.15828 14.254 3.04837 12.908L2.12908 1.78408L0.620259 1.51877C0.22057 1.44734 -0.0592117 1.04936 0.0107338 0.64118C0.0806793 0.222795 0.470376 -0.0527261 0.880056 0.00850084L3.2632 0.375863C3.60293 0.43811 3.85274 0.722816 3.88272 1.06977L4.07257 3.35558C4.10255 3.68314 4.36234 3.92805 4.68209 3.92805H18.1766ZM12.1205 9.2299H14.8884C15.308 9.2299 15.6378 8.88295 15.6378 8.46457C15.6378 8.03598 15.308 7.69923 14.8884 7.69923H12.1205C11.7008 7.69923 11.3711 8.03598 11.3711 8.46457C11.3711 8.88295 11.7008 9.2299 12.1205 9.2299Z" fill="#409900"/>
</svg>
