<svg width="539" height="238" viewBox="0 0 539 238" fill="none" xmlns="http://www.w3.org/2000/svg">
<path d="M4.30256 3.54545H3.15767L0.794034 5.11506V6.27841L3.10227 4.74574H3.15767V13H4.30256V3.54545ZM10.1609 13.1293C12.0721 13.1523 13.3185 11.712 13.3185 9.95312C13.3185 8.125 11.9659 6.81392 10.3455 6.81392C9.37145 6.81392 8.53587 7.28942 8.01882 8.0696H7.94496C7.94957 5.76598 8.84517 4.43182 10.3086 4.43182C11.3058 4.43182 11.9059 5.05966 12.1183 5.90909H13.2447C13.0138 4.44105 11.8967 3.41619 10.3086 3.41619C8.1804 3.41619 6.87393 5.29972 6.87393 8.64205C6.87393 12.1367 8.60973 13.1108 10.1609 13.1293ZM10.1609 12.1136C8.97443 12.1136 8.10653 11.1026 8.11115 9.97159C8.11577 8.84055 9.02521 7.82955 10.1978 7.82955C11.3565 7.82955 12.2106 8.78054 12.2106 9.95312C12.2106 11.1534 11.3196 12.1136 10.1609 12.1136ZM18.2178 13.1293C20.3044 13.1293 21.5047 11.3612 21.5047 8.27273C21.5047 5.20739 20.286 3.41619 18.2178 3.41619C16.1496 3.41619 14.9308 5.20739 14.9308 8.27273C14.9308 11.3612 16.1311 13.1293 18.2178 13.1293ZM18.2178 12.1136C16.8421 12.1136 16.0388 10.7333 16.0388 8.27273C16.0388 5.81676 16.8513 4.41335 18.2178 4.41335C19.5843 4.41335 20.3968 5.81676 20.3968 8.27273C20.3968 10.7333 19.5935 12.1136 18.2178 12.1136Z" fill="#8A92A6"/>
<path d="M4.30256 52.5455H3.15767L0.794034 54.1151V55.2784L3.10227 53.7457H3.15767V62H4.30256V52.5455ZM7.02166 62H12.9862V60.9844H8.59126V60.9105L10.7148 58.6392C12.3398 56.8988 12.82 56.0863 12.82 55.0384C12.82 53.5795 11.6381 52.4162 9.97621 52.4162C8.31889 52.4162 7.05859 53.5426 7.05859 55.2045H8.14808C8.14808 54.1289 8.84517 53.4134 9.93928 53.4134C10.9641 53.4134 11.7489 54.0412 11.7489 55.0384C11.7489 55.9109 11.2365 56.5572 10.1424 57.7528L7.02166 61.169V62ZM17.9766 62.1293C20.0632 62.1293 21.2635 60.3612 21.2635 57.2727C21.2635 54.2074 20.0447 52.4162 17.9766 52.4162C15.9084 52.4162 14.6896 54.2074 14.6896 57.2727C14.6896 60.3612 15.8899 62.1293 17.9766 62.1293ZM17.9766 61.1136C16.6009 61.1136 15.7976 59.7333 15.7976 57.2727C15.7976 54.8168 16.6101 53.4134 17.9766 53.4134C19.343 53.4134 20.1555 54.8168 20.1555 57.2727C20.1555 59.7333 19.3523 61.1136 17.9766 61.1136Z" fill="#8A92A6"/>
<path d="M7.0071 111.129C8.89524 111.129 10.2109 110.026 10.2202 108.489C10.2109 107.293 9.41229 106.277 8.39205 106.088V106.033C9.27841 105.802 9.86009 104.934 9.86932 103.928C9.86009 102.487 8.65057 101.416 7.0071 101.416C5.34517 101.416 4.13565 102.487 4.14489 103.928C4.13565 104.934 4.71733 105.802 5.62216 106.033V106.088C4.58345 106.277 3.7848 107.293 3.79403 108.489C3.7848 110.026 5.1005 111.129 7.0071 111.129ZM7.0071 110.114C5.70987 110.114 4.91122 109.449 4.92045 108.433C4.91122 107.367 5.79297 106.605 7.0071 106.605C8.20277 106.605 9.08452 107.367 9.09375 108.433C9.08452 109.449 8.28587 110.114 7.0071 110.114ZM7.0071 105.626C5.97301 105.626 5.24361 104.98 5.25284 104.001C5.24361 103.041 5.94531 102.413 7.0071 102.413C8.05043 102.413 8.75213 103.041 8.76136 104.001C8.75213 104.98 8.02273 105.626 7.0071 105.626ZM15.0732 111.129C17.1599 111.129 18.3602 109.361 18.3602 106.273C18.3602 103.207 17.1414 101.416 15.0732 101.416C13.0051 101.416 11.7863 103.207 11.7863 106.273C11.7863 109.361 12.9866 111.129 15.0732 111.129ZM15.0732 110.114C13.6975 110.114 12.8943 108.733 12.8943 106.273C12.8943 103.817 13.7068 102.413 15.0732 102.413C16.4397 102.413 17.2522 103.817 17.2522 106.273C17.2522 108.733 16.449 110.114 15.0732 110.114Z" fill="#8A92A6"/>
<path d="M3.7571 158.061H8.20739V160H9.29688V158.061H10.5895V157.045H9.29688V150.545H7.91193L3.7571 157.119V158.061ZM8.20739 157.045H4.99432V156.972L8.13352 152.004H8.20739V157.045ZM15.4033 160.129C17.49 160.129 18.6903 158.361 18.6903 155.273C18.6903 152.207 17.4715 150.416 15.4033 150.416C13.3351 150.416 12.1164 152.207 12.1164 155.273C12.1164 158.361 13.3167 160.129 15.4033 160.129ZM15.4033 159.114C14.0276 159.114 13.2243 157.733 13.2243 155.273C13.2243 152.817 14.0368 151.413 15.4033 151.413C16.7698 151.413 17.5823 152.817 17.5823 155.273C17.5823 157.733 16.779 159.114 15.4033 159.114Z" fill="#8A92A6"/>
<path d="M11.0625 209.129C13.1491 209.129 14.3494 207.361 14.3494 204.273C14.3494 201.207 13.1307 199.416 11.0625 199.416C8.99432 199.416 7.77557 201.207 7.77557 204.273C7.77557 207.361 8.97585 209.129 11.0625 209.129ZM11.0625 208.114C9.68679 208.114 8.88352 206.733 8.88352 204.273C8.88352 201.817 9.69602 200.413 11.0625 200.413C12.429 200.413 13.2415 201.817 13.2415 204.273C13.2415 206.733 12.4382 208.114 11.0625 208.114Z" fill="#8A92A6"/>
<line x1="31" y1="20.5" x2="539" y2="20.5" stroke="#5C6CA5"/>
<line x1="31" y1="68.5" x2="539" y2="68.5" stroke="#5C6CA5"/>
<line x1="31" y1="116.5" x2="539" y2="116.5" stroke="#5C6CA5"/>
<line x1="31" y1="164.5" x2="539" y2="164.5" stroke="#5C6CA5"/>
<line x1="31" y1="212.5" x2="539" y2="212.5" stroke="#5C6CA5"/>
<path d="M55 139C55 136.239 57.2386 134 60 134C62.7614 134 65 136.239 65 139V213H55V139Z" fill="#85F4FA"/>
<rect x="55" y="170.797" width="10" height="42.2009" fill="#3A57E8"/>
<path d="M105 81C105 78.2386 107.239 76 110 76C112.761 76 115 78.2386 115 81V213H105V81Z" fill="#85F4FA"/>
<rect x="105" y="139.816" width="10" height="73.1838" fill="#3A57E8"/>
<path d="M155 112C155 109.239 157.239 107 160 107C162.761 107 165 109.239 165 112V213H155V112Z" fill="#85F4FA"/>
<rect x="155" y="156.375" width="10" height="56.6239" fill="#3A57E8"/>
<path d="M205 72C205 69.2386 207.239 67 210 67C212.761 67 215 69.2386 215 72V213H205V72Z" fill="#85F4FA"/>
<rect x="205" y="135.008" width="10" height="77.9915" fill="#3A57E8"/>
<path d="M255 112C255 109.239 257.239 107 260 107C262.761 107 265 109.239 265 112V213H255V112Z" fill="#85F4FA"/>
<rect x="255" y="156.375" width="10" height="56.6239" fill="#3A57E8"/>
<path d="M305 52C305 49.2386 307.239 47 310 47C312.761 47 315 49.2386 315 52V213H305V52Z" fill="#85F4FA"/>
<rect x="305" y="124.324" width="10" height="88.6752" fill="#3A57E8"/>
<path d="M355 112C355 109.239 357.239 107 360 107C362.761 107 365 109.239 365 112V213H355V112Z" fill="#85F4FA"/>
<rect x="355" y="156.375" width="10" height="56.6239" fill="#3A57E8"/>
<path d="M405 139C405 136.239 407.239 134 410 134C412.761 134 415 136.239 415 139V213H405V139Z" fill="#85F4FA"/>
<rect x="405" y="170.801" width="10" height="42.2009" fill="#3A57E8"/>
<path d="M455 102C455 99.2386 457.239 97 460 97C462.761 97 465 99.2386 465 102V213H455V102Z" fill="#85F4FA"/>
<rect x="455" y="151.035" width="10" height="61.9658" fill="#3A57E8"/>
<path d="M505 112C505 109.239 507.239 107 510 107C512.761 107 515 109.239 515 112V213H505V112Z" fill="#85F4FA"/>
<rect x="505" y="156.375" width="10" height="56.6239" fill="#3A57E8"/>
<path d="M61.3153 226.909H62.4233C62.3725 225.483 61.0568 224.416 59.2287 224.416C57.419 224.416 55.9972 225.469 55.9972 227.057C55.9972 228.331 56.9205 229.088 58.3977 229.513L59.5611 229.845C60.5582 230.122 61.4446 230.473 61.4446 231.415C61.4446 232.449 60.4474 233.132 59.1364 233.132C58.0099 233.132 57.0128 232.634 56.9205 231.562H55.7386C55.8494 233.114 57.1051 234.166 59.1364 234.166C61.3153 234.166 62.5526 232.966 62.5526 231.433C62.5526 229.661 60.8722 229.088 59.8935 228.83L58.9332 228.571C58.2315 228.386 57.1051 228.017 57.1051 227.001C57.1051 226.097 57.9361 225.432 59.1918 225.432C60.3366 225.432 61.2045 225.977 61.3153 226.909Z" fill="#8A92A6"/>
<path d="M105.145 224.545V234H106.216V226.817H106.308L109.263 234H110.297L113.251 226.817H113.344V234H114.415V224.545H113.048L109.835 232.393H109.724L106.511 224.545H105.145Z" fill="#8A92A6"/>
<path d="M156.628 225.561H159.601V234H160.746V225.561H163.719V224.545H156.628V225.561Z" fill="#8A92A6"/>
<path d="M207.862 234H209.044L211.131 226.466H211.205L213.291 234H214.473L217.058 224.545H215.895L213.919 232.246H213.827L211.814 224.545H210.521L208.509 232.246H208.416L206.44 224.545H205.277L207.862 234Z" fill="#8A92A6"/>
<path d="M258.628 225.561H261.601V234H262.746V225.561H265.719V224.545H258.628V225.561Z" fill="#8A92A6"/>
<path d="M308.145 234H309.29V229.771H313.389V228.756H309.29V225.561H313.814V224.545H308.145V234Z" fill="#8A92A6"/>
<path d="M361.315 226.909H362.423C362.373 225.483 361.057 224.416 359.229 224.416C357.419 224.416 355.997 225.469 355.997 227.057C355.997 228.331 356.92 229.088 358.398 229.513L359.561 229.845C360.558 230.122 361.445 230.473 361.445 231.415C361.445 232.449 360.447 233.132 359.136 233.132C358.01 233.132 357.013 232.634 356.92 231.562H355.739C355.849 233.114 357.105 234.166 359.136 234.166C361.315 234.166 362.553 232.966 362.553 231.433C362.553 229.661 360.872 229.088 359.893 228.83L358.933 228.571C358.232 228.386 357.105 228.017 357.105 227.001C357.105 226.097 357.936 225.432 359.192 225.432C360.337 225.432 361.205 225.977 361.315 226.909Z" fill="#8A92A6"/>
<path d="M405.145 224.545V234H406.216V226.817H406.308L409.263 234H410.297L413.251 226.817H413.344V234H414.415V224.545H413.048L409.835 232.393H409.724L406.511 224.545H405.145Z" fill="#8A92A6"/>
<path d="M456.628 225.561H459.601V234H460.746V225.561H463.719V224.545H456.628V225.561Z" fill="#8A92A6"/>
<path d="M507.862 234H509.044L511.131 226.466H511.205L513.291 234H514.473L517.058 224.545H515.895L513.919 232.246H513.827L511.814 224.545H510.521L508.509 232.246H508.416L506.44 224.545H505.277L507.862 234Z" fill="#8A92A6"/>
</svg>
