<svg xmlns="http://www.w3.org/2000/svg" width="214" height="214" viewBox="0 0 214 214" fill="none">
  <circle cx="107" cy="107" r="103" stroke="#8A92A6" stroke-width="4"/>
  <path d="M107 4C128.255 4 148.99 10.5757 166.36 22.8253C183.73 35.0749 196.886 52.3985 204.022 72.42C211.158 92.4414 211.925 114.18 206.218 134.655C200.511 155.13 188.61 173.337 172.146 186.781C155.682 200.225 135.463 208.246 114.26 209.744C93.0582 211.242 71.9116 206.144 53.721 195.15C35.5304 184.155 21.1867 167.802 12.6571 148.333C4.12762 128.864 1.83001 107.234 6.07945 86.4077" stroke="#3A57E8" stroke-width="8" stroke-linecap="round"/>
  <circle cx="106.976" cy="106.976" r="78.4993" stroke="#8A92A6" stroke-width="4"/>
  <path d="M106.973 28.4766C118.356 28.4766 129.602 30.952 139.933 35.7313C150.264 40.5106 159.431 47.4793 166.801 56.1545C174.17 64.8297 179.564 75.0037 182.61 85.9713C185.656 96.9389 186.28 108.438 184.439 119.671C182.598 130.903 178.337 141.601 171.95 151.023C165.563 160.445 157.203 168.365 147.45 174.235C137.698 180.104 126.785 183.782 115.469 185.014C104.154 186.246 92.7053 185.002 81.918 181.369" stroke="#85F4FA" stroke-width="8" stroke-linecap="round"/>
</svg>